<?xml version="1.0" encoding="utf-8"?>
<!-- Generator: Adobe Illustrator 16.0.0, SVG Export Plug-In . SVG Version: 6.00 Build 0)  -->
<!DOCTYPE svg PUBLIC "-//W3C//DTD SVG 1.1//EN" "http://www.w3.org/Graphics/SVG/1.1/DTD/svg11.dtd">
<svg version="1.1" id="Layer_1" xmlns="http://www.w3.org/2000/svg" xmlns:xlink="http://www.w3.org/1999/xlink" x="0px" y="0px"
	 width="160px" height="80px" viewBox="0 0 160 80" enable-background="new 0 0 160 80" xml:space="preserve">
<g>
	<g>
		<path fill="#222223" d="M138.272,33.256h-22.214c-2.531-7.316-7.09-13.558-13.19-18.06c-6.442-4.751-14.178-7.264-22.37-7.264
			c-8.093,0-15.582,2.459-21.657,7.113c-5.749,4.402-10.112,10.697-12.624,18.211H22.715c-11.432,0-20.732,8.568-20.732,19.1
			c0,10.533,9.3,19.102,20.732,19.102h115.557c11.43,0,20.728-8.568,20.728-19.102C159,41.824,149.702,33.256,138.272,33.256z"/>
		<path fill="#FFFFFF" d="M80.498,9.521c-15.801,0-28.34,9.651-33.124,25.325H22.715c-10.556,0-19.142,7.858-19.142,17.51
			c0,9.655,8.586,17.514,19.142,17.514h115.557c10.553,0,19.14-7.858,19.14-17.514c0-9.652-8.587-17.51-19.14-17.51h-23.363
			C110.143,19.621,96.529,9.521,80.498,9.521L80.498,9.521z"/>
		<path fill="#222223" d="M49.179,37.229c-0.4,0-26.463,0-26.463,0c-9.241,0-16.757,6.789-16.757,15.127
			c0,8.345,7.517,15.128,16.757,15.128h115.557c9.24,0,16.756-6.783,16.756-15.128c0-8.338-7.516-15.127-16.756-15.127
			c0,0-24.762,0-25.157,0c-3.961-15.15-17.031-25.323-32.617-25.323C65.217,11.906,53.247,21.611,49.179,37.229z"/>
		<g>
			<path fill="#FFFFFF" d="M26.188,46.549c0,0.497,0.267,0.818,0.758,0.912c0.017,0.001,0.065,0.008,0.149,0.018l0.696,0.098
				c0.108,0.014,0.219,0.029,0.326,0.045v7.113c0,0.262,0.005,0.475,0.011,0.636l-7.67-9.779c-0.058-0.073-0.129-0.149-0.243-0.265
				c-0.077-0.072-0.162-0.133-0.266-0.184c-0.109-0.047-0.206-0.072-0.303-0.082c-0.12-0.016-0.237-0.022-0.355-0.022h-3.38v1.511
				c0,0.495,0.268,0.818,0.743,0.908c0.025,0.006,0.058,0.012,0.066,0.012c0.031,0.009,0.057,0.014,0.079,0.014
				c0.048,0.008,0.15,0.026,0.314,0.061l0.43,0.064v10.899c-0.047,0.006-0.093,0.015-0.148,0.023l-0.358,0.055
				c-0.024,0.006-0.047,0.009-0.047,0.012c-0.033,0.003-0.069,0.005-0.081,0.013l-0.112,0.014c-0.076,0.01-0.143,0.023-0.156,0.035
				c-0.47,0.09-0.729,0.415-0.729,0.912v1.504h6.596V59.57c0-0.492-0.254-0.822-0.68-0.897c-0.045-0.021-0.052-0.023-1.252-0.182
				v-7.207c0-0.095-0.007-0.276-0.02-0.544l7.664,9.752c0.168,0.212,0.339,0.361,0.525,0.454c0.169,0.088,0.395,0.128,0.674,0.128
				h1.735V47.607c0.014,0,0.03-0.004,0.047-0.006l0.388-0.061c0.045-0.006,0.094-0.016,0.156-0.029l0.054-0.014
				c0.026-0.007,0.048-0.011,0.061-0.014c0.03,0,0.066-0.006,0.086-0.01l0.097-0.018c0.467-0.091,0.725-0.413,0.725-0.908v-1.511
				h-6.579V46.549z"/>
			<path fill="#FFFFFF" d="M49.891,58.978c-0.085-0.041-0.48-0.206-1.09-0.459l-5.284-13.48h-3.288l-5.287,13.483
				c-0.857,0.367-1.041,0.433-1.09,0.45c-0.496,0.198-0.571,0.564-0.571,0.768v1.335h5.733v-1.335c0-0.341-0.19-0.604-0.532-0.741
				c-0.01-0.009-0.047-0.027-0.107-0.059c-0.033-0.017-0.084-0.038-0.144-0.058l-0.005-0.004l0.716-1.952h5.863l0.717,1.96
				l-0.001,0.003c-0.056,0.021-0.096,0.041-0.121,0.047c-0.053,0.018-0.088,0.031-0.097,0.036c-0.47,0.187-0.569,0.521-0.569,0.768
				v1.335h5.729v-1.335C50.463,59.5,50.365,59.176,49.891,58.978z M41.8,49.054l0.011-0.039c0.019-0.063,0.042-0.134,0.061-0.207
				c0.028,0.082,0.054,0.162,0.08,0.243l0.014,0.045c0.123,0.354,0.211,0.611,0.271,0.773l1.646,4.511h-4.022l1.646-4.485
				C41.608,49.64,41.699,49.371,41.8,49.054z"/>
			<path fill="#FFFFFF" d="M63.517,46.5c-0.511-0.459-1.175-0.824-1.968-1.081c-0.787-0.252-1.722-0.381-2.774-0.381h-6.678v1.511
				c0,0.495,0.263,0.818,0.747,0.912c0.013,0.001,0.053,0.008,0.118,0.021c0.024,0.005,0.074,0.016,0.15,0.033l0.456,0.096
				c0.055,0.01,0.109,0.018,0.159,0.031v10.887c-0.046,0.01-0.096,0.018-0.152,0.026c-0.136,0.026-0.225,0.041-0.279,0.046
				l-0.037,0.007c-0.042,0.005-0.082,0.012-0.099,0.018c-0.034,0.005-0.064,0.011-0.091,0.015l-0.033,0.006
				c-0.019,0.003-0.032,0.006-0.058,0.006c-0.045,0.009-0.115,0.021-0.168,0.039c-0.461,0.093-0.714,0.411-0.714,0.898v1.484h6.622
				V59.59c0-0.487-0.26-0.812-0.682-0.888c-0.058-0.022-0.121-0.038-0.227-0.05c-0.005,0-0.02-0.003-0.032-0.006l-0.097-0.018
				c-0.026-0.008-0.06-0.012-0.095-0.019L57.519,58.6c-0.043-0.003-0.132-0.018-0.27-0.047c-0.053-0.006-0.102-0.014-0.146-0.022
				v-2.888h1.671c1.029,0,1.947-0.131,2.723-0.387c0.779-0.26,1.439-0.63,1.964-1.097c0.528-0.47,0.931-1.047,1.201-1.718
				c0.259-0.653,0.392-1.378,0.392-2.156c0-0.771-0.128-1.478-0.374-2.105C64.423,47.537,64.031,46.972,63.517,46.5z M60.084,52.677
				c-0.367,0.126-0.807,0.189-1.31,0.189h-1.671v-5.05h1.671c0.494,0,0.938,0.062,1.316,0.179c0.361,0.115,0.662,0.278,0.896,0.487
				c0.229,0.207,0.397,0.457,0.515,0.762c0.115,0.296,0.171,0.641,0.171,1.022c0,0.399-0.057,0.769-0.172,1.096
				c-0.117,0.334-0.283,0.591-0.52,0.812C60.762,52.384,60.461,52.553,60.084,52.677z"/>
			<path fill="#FFFFFF" d="M80.473,47.201c-0.714-0.728-1.575-1.303-2.561-1.711c-0.984-0.414-2.092-0.621-3.293-0.621
				c-1.19,0-2.305,0.207-3.309,0.619c-1.006,0.405-1.875,0.982-2.586,1.713c-0.719,0.747-1.276,1.622-1.657,2.605
				c-0.384,0.992-0.582,2.089-0.582,3.261c0,1.155,0.196,2.247,0.582,3.247c0.382,0.981,0.938,1.856,1.657,2.599
				c0.72,0.735,1.588,1.317,2.586,1.726c0.987,0.401,2.1,0.604,3.309,0.604c1.212,0,2.322-0.202,3.293-0.604
				c0.997-0.413,1.86-0.994,2.563-1.726c0.723-0.742,1.279-1.616,1.655-2.599c0.391-0.997,0.585-2.088,0.585-3.247
				c0-1.158-0.194-2.257-0.585-3.258C81.736,48.799,81.181,47.922,80.473,47.201z M74.619,58.294c-0.727,0-1.385-0.122-1.959-0.359
				c-0.572-0.234-1.068-0.577-1.473-1.022c-0.395-0.428-0.711-0.977-0.937-1.632c-0.22-0.665-0.332-1.411-0.332-2.213
				c0-0.821,0.112-1.566,0.332-2.221c0.219-0.644,0.533-1.196,0.937-1.636c0.415-0.454,0.91-0.8,1.473-1.031
				c0.576-0.24,1.233-0.363,1.959-0.363c0.721,0,1.378,0.122,1.956,0.362c0.566,0.233,1.056,0.58,1.455,1.032
				c0.401,0.448,0.717,0.997,0.931,1.638c0.215,0.627,0.324,1.373,0.324,2.219c0,0.834-0.109,1.579-0.324,2.213
				c-0.213,0.64-0.53,1.189-0.931,1.637c-0.39,0.441-0.879,0.784-1.455,1.018C76.002,58.172,75.342,58.294,74.619,58.294z"/>
			<path fill="#FFFFFF" d="M93.462,57.509c-0.031,0.202-0.059,0.469-0.082,0.785h-4.535V47.616l0.116-0.022
				c0.142-0.021,0.246-0.038,0.325-0.055c0.021-0.004,0.042-0.01,0.068-0.013l0.075-0.015c0.056-0.014,0.094-0.021,0.119-0.027
				c0.028,0,0.062-0.006,0.081-0.01c0.026-0.003,0.048-0.006,0.102-0.018c0.469-0.091,0.73-0.413,0.73-0.908v-1.511h-6.629v1.511
				c0,0.495,0.268,0.818,0.76,0.912c0.017,0.001,0.056,0.008,0.114,0.018c0.041,0.009,0.147,0.029,0.333,0.064l0.31,0.047
				c0.042,0.009,0.079,0.013,0.117,0.021v10.936c-0.046,0.006-0.094,0.017-0.142,0.024l-0.544,0.075
				c-0.019,0.003-0.033,0.006-0.062,0.006c-0.042,0.007-0.117,0.014-0.171,0.041c-0.46,0.095-0.716,0.409-0.716,0.896v1.484H95.58
				v-4.196h-1.39C93.799,56.878,93.543,57.101,93.462,57.509z"/>
			<path fill="#FFFFFF" d="M97.259,46.549c0,0.496,0.268,0.818,0.745,0.908c0.026,0.006,0.06,0.012,0.078,0.015
				c0.003,0,0.044,0.009,0.071,0.011c0.052,0.007,0.154,0.026,0.322,0.061l0.35,0.053c0.031,0.006,0.059,0.01,0.084,0.016v10.912
				c-0.048,0.009-0.101,0.02-0.156,0.028l-0.057,0.012c-0.107,0.019-0.179,0.033-0.216,0.036l-0.144,0.023
				c-0.042,0.004-0.073,0.014-0.128,0.023c-0.017,0.006-0.03,0.006-0.056,0.006c-0.031,0.006-0.135,0.021-0.156,0.035
				c-0.475,0.09-0.738,0.411-0.738,0.902v1.484h11.929V56.5h-1.474c-0.402,0-0.664,0.21-0.743,0.601
				c-0.025,0.151-0.068,0.521-0.138,1.193h-4.546v-3.931h5.262v-2.78h-5.262v-3.767h4.55c0.065,0.664,0.108,1.033,0.136,1.198
				c0.077,0.374,0.348,0.59,0.741,0.59h1.474v-4.566H97.259V46.549z"/>
			<path fill="#FFFFFF" d="M124.773,47.201c-0.716-0.73-1.577-1.308-2.56-1.711c-0.987-0.414-2.097-0.621-3.296-0.621
				c-1.188,0-2.3,0.207-3.305,0.619c-1.004,0.405-1.874,0.982-2.581,1.713c-0.721,0.742-1.278,1.618-1.659,2.604
				c-0.388,0.985-0.583,2.083-0.583,3.262c0,1.162,0.195,2.255,0.583,3.247c0.383,0.984,0.942,1.859,1.659,2.599
				c0.712,0.732,1.58,1.315,2.581,1.726c0.982,0.401,2.094,0.604,3.305,0.604c1.216,0,2.327-0.203,3.296-0.604
				c0.986-0.407,1.85-0.986,2.566-1.725c0.722-0.742,1.275-1.619,1.654-2.599c0.386-0.997,0.581-2.088,0.581-3.247
				c0-1.157-0.195-2.255-0.581-3.258C126.041,48.808,125.485,47.93,124.773,47.201z M118.918,58.294
				c-0.726,0-1.384-0.122-1.958-0.359c-0.574-0.234-1.068-0.577-1.47-1.022c-0.403-0.44-0.718-0.991-0.937-1.636
				c-0.223-0.652-0.335-1.396-0.335-2.209c0-0.828,0.112-1.578,0.335-2.221c0.219-0.644,0.533-1.196,0.937-1.636
				c0.416-0.454,0.911-0.8,1.47-1.031c0.578-0.24,1.234-0.363,1.958-0.363c0.723,0,1.381,0.122,1.953,0.362
				c0.566,0.233,1.06,0.582,1.459,1.032c0.404,0.448,0.72,0.999,0.926,1.638c0.221,0.633,0.331,1.378,0.331,2.219
				c0,0.829-0.11,1.573-0.331,2.213c-0.206,0.63-0.516,1.183-0.926,1.638c-0.387,0.439-0.878,0.782-1.459,1.017
				C120.303,58.172,119.646,58.294,118.918,58.294z"/>
			<path fill="#FFFFFF" d="M138.254,45.038v1.511c0,0.495,0.266,0.818,0.762,0.912c0.015,0.001,0.062,0.008,0.147,0.018l0.701,0.098
				c0.104,0.014,0.215,0.029,0.325,0.045v7.113c0,0.259,0.004,0.472,0.008,0.635l-7.67-9.777c-0.061-0.079-0.142-0.163-0.239-0.262
				c-0.07-0.068-0.158-0.132-0.267-0.186c-0.098-0.044-0.204-0.074-0.306-0.084c-0.123-0.016-0.241-0.022-0.352-0.022h-3.385v1.511
				c0,0.495,0.265,0.818,0.743,0.908c0.013,0.004,0.022,0.005,0.033,0.01l0.011,0.002c0.01,0,0.017,0,0.017,0l0.008,0.003
				c0.022,0.003,0.042,0.007,0.064,0.007l0.009,0.004c0.029,0.005,0.083,0.016,0.164,0.029l0.583,0.096v10.899
				c-0.044,0.006-0.09,0.015-0.146,0.023l-0.36,0.058c-0.027,0.003-0.054,0.009-0.046,0.009c-0.031,0.003-0.066,0.003-0.079,0.013
				l-0.066,0.008c-0.023,0.006-0.027,0.006-0.052,0.006c-0.08,0.014-0.142,0.024-0.15,0.035c-0.471,0.09-0.732,0.415-0.732,0.912
				v1.504h6.596V59.57c0-0.486-0.251-0.813-0.688-0.9c-0.052-0.021-0.206-0.041-1.247-0.179v-7.207c0-0.095-0.006-0.276-0.017-0.549
				l7.666,9.755c0.156,0.201,0.331,0.356,0.526,0.456c0.173,0.089,0.396,0.128,0.673,0.128h1.733V47.607
				c0.017,0,0.031-0.004,0.046-0.006l0.39-0.061c0.044-0.006,0.094-0.016,0.147-0.027l0.046-0.014
				c0.035-0.005,0.059-0.011,0.059-0.013l0.2-0.03c0.47-0.093,0.729-0.413,0.729-0.908v-1.511H138.254z"/>
		</g>
	</g>
	<g>
		<path fill="#CF0A2C" d="M76.929,14.411c6.098,6.424-10.331,13.967-0.725,22.868c-2.171-4.999,2.123-9.789,5.762-12.025
			c-5.297,6.337,3.229,11.58-0.924,16.625C90.138,37.92,92.943,20.72,76.929,14.411z"/>
		<path fill="#CF0A2C" d="M74.271,23.572c0,0-8.584,9.011,2.85,17.456C77.121,41.027,56.202,34.152,74.271,23.572z"/>
		<path fill="#CF0A2C" d="M88.06,37.662c0,0,1.597-2.16,2.141-5.611c0.633-4.009-0.204-9.555-5.304-14.17
			C84.896,17.881,103.23,27.773,88.06,37.662z"/>
	</g>
</g>
</svg>
